<svg width="96" height="52" viewBox="0 0 96 52" fill="none" xmlns="http://www.w3.org/2000/svg">
<path d="M83.8213 0.982178C88.9579 -1.8738 95.2725 1.84029 95.2725 7.71753V44.072C95.2725 48.3281 91.8225 51.7779 87.5664 51.7781H7.70605C3.45007 51.7779 0 48.3281 0 44.072V7.71753C0 1.84031 6.31452 -1.87378 11.4512 0.982178L43.8916 19.0183C46.2203 20.313 49.0522 20.313 51.3809 19.0183L83.8213 0.982178ZM22.3574 16.3474C14.4296 16.3474 8.00293 22.7741 8.00293 30.7019C8.00296 38.6297 14.4296 45.0564 22.3574 45.0564C30.2852 45.0564 36.7119 38.6297 36.7119 30.7019C36.7119 22.7741 30.2852 16.3474 22.3574 16.3474ZM40.5918 33.4988V35.405H40.6133C40.7276 37.7239 41.4504 45.0558 46.0225 45.0564C50.595 45.0564 51.3183 37.724 51.4326 35.405H59.4727V33.4988H40.5918ZM74.876 25.033L67.4766 17.6892L62.1074 23.0994L69.4658 30.4021L62.1064 37.7068L67.4766 43.116L74.876 35.7722L82.2744 43.116L87.6445 37.7068L80.2852 30.4021L87.6436 23.0994L82.2744 17.6892L74.876 25.033ZM22.3574 22.0896C27.1141 22.0896 30.9697 25.9452 30.9697 30.7019C30.9697 35.4586 27.1141 39.3142 22.3574 39.3142C17.6008 39.3142 13.7451 35.4586 13.7451 30.7019C13.7451 25.9452 17.6007 22.0896 22.3574 22.0896Z" fill="#320809"/>
</svg>
