<svg width="11992" height="5629" viewBox="0 0 11992 5629" fill="none" xmlns="http://www.w3.org/2000/svg">
<g clip-path="url(#clip0_212_500)">
<rect width="11992" height="5629" fill="#FFFAE7"/>
<mask id="path-1-outside-1_212_500" maskUnits="userSpaceOnUse" x="9768.57" y="2467.69" width="230.118" height="513.045" fill="black">
<rect fill="white" x="9768.57" y="2467.69" width="230.118" height="513.045"/>
<path d="M9801.08 2973.3L9925.93 2476.98L9966.48 2475.1L9841.63 2971.42L9801.08 2973.3ZM9911.15 2762.88L9962.2 2760.51L9980.49 2777.18L9988.37 2947.1L9971.69 2965.39L9920.65 2967.76L9902.36 2951.08L9894.48 2781.17L9911.15 2762.88ZM9795.87 2483.01L9846.91 2480.65L9865.2 2497.32L9873.08 2667.24L9856.41 2685.53L9805.37 2687.89L9787.07 2671.22L9779.2 2501.31L9795.87 2483.01ZM9947.44 2925.87L9941.7 2802.1L9934.71 2802.43L9940.45 2926.19L9947.44 2925.87ZM9825.86 2646.3L9832.85 2645.98L9827.12 2522.21L9820.12 2522.53L9825.86 2646.3Z"/>
</mask>
<path d="M9801.08 2973.3L9794.95 2971.76L9792.87 2980.01L9801.37 2979.61L9801.08 2973.3ZM9925.93 2476.98L9925.64 2470.67L9920.94 2470.89L9919.8 2475.44L9925.93 2476.98ZM9966.48 2475.1L9972.61 2476.65L9974.69 2468.4L9966.19 2468.79L9966.48 2475.1ZM9841.63 2971.42L9841.93 2977.73L9846.62 2977.51L9847.76 2972.96L9841.63 2971.42ZM9911.15 2762.88L9910.86 2756.56L9908.24 2756.68L9906.48 2758.62L9911.15 2762.88ZM9962.2 2760.51L9966.45 2755.84L9964.52 2754.07L9961.9 2754.2L9962.2 2760.51ZM9980.49 2777.18L9986.8 2776.89L9986.68 2774.27L9984.75 2772.51L9980.49 2777.18ZM9988.37 2947.1L9993.04 2951.35L9994.8 2949.42L9994.68 2946.8L9988.37 2947.1ZM9971.69 2965.39L9971.99 2971.7L9974.6 2971.58L9976.37 2969.65L9971.69 2965.39ZM9920.65 2967.76L9916.39 2972.43L9918.33 2974.19L9920.94 2974.07L9920.65 2967.76ZM9902.36 2951.08L9896.04 2951.38L9896.17 2953.99L9898.1 2955.76L9902.36 2951.08ZM9894.48 2781.17L9889.81 2776.91L9888.05 2778.84L9888.17 2781.46L9894.48 2781.17ZM9795.87 2483.01L9795.57 2476.7L9792.96 2476.82L9791.2 2478.76L9795.87 2483.01ZM9846.91 2480.65L9851.17 2475.98L9849.24 2474.21L9846.62 2474.33L9846.91 2480.65ZM9865.2 2497.32L9871.52 2497.03L9871.4 2494.41L9869.46 2492.65L9865.2 2497.32ZM9873.08 2667.24L9877.75 2671.49L9879.52 2669.56L9879.39 2666.94L9873.08 2667.24ZM9856.41 2685.53L9856.7 2691.84L9859.32 2691.72L9861.08 2689.78L9856.41 2685.53ZM9805.37 2687.89L9801.11 2692.57L9803.04 2694.33L9805.66 2694.21L9805.37 2687.89ZM9787.07 2671.22L9780.76 2671.52L9780.88 2674.13L9782.82 2675.89L9787.07 2671.22ZM9779.2 2501.31L9774.53 2497.05L9772.76 2498.98L9772.88 2501.6L9779.2 2501.31ZM9947.44 2925.87L9947.73 2932.18L9954.04 2931.89L9953.75 2925.58L9947.44 2925.87ZM9941.7 2802.1L9948.01 2801.81L9947.72 2795.5L9941.41 2795.79L9941.7 2802.1ZM9934.71 2802.43L9934.42 2796.11L9928.1 2796.41L9928.4 2802.72L9934.71 2802.43ZM9940.45 2926.19L9934.13 2926.49L9934.43 2932.8L9940.74 2932.51L9940.45 2926.19ZM9825.86 2646.3L9819.55 2646.59L9819.84 2652.91L9826.15 2652.61L9825.86 2646.3ZM9832.85 2645.98L9833.15 2652.29L9839.46 2652L9839.17 2645.68L9832.85 2645.98ZM9827.12 2522.21L9833.43 2521.92L9833.14 2515.6L9826.82 2515.9L9827.12 2522.21ZM9820.12 2522.53L9819.83 2516.22L9813.52 2516.51L9813.81 2522.83L9820.12 2522.53ZM9801.08 2973.3L9807.21 2974.84L9932.06 2478.53L9925.93 2476.98L9919.8 2475.44L9794.95 2971.76L9801.08 2973.3ZM9925.93 2476.98L9926.22 2483.3L9966.78 2481.42L9966.48 2475.1L9966.19 2468.79L9925.64 2470.67L9925.93 2476.98ZM9966.48 2475.1L9960.36 2473.56L9835.51 2969.88L9841.63 2971.42L9847.76 2972.96L9972.61 2476.65L9966.48 2475.1ZM9841.63 2971.42L9841.34 2965.11L9800.79 2966.99L9801.08 2973.3L9801.37 2979.61L9841.93 2977.73L9841.63 2971.42ZM9911.15 2762.88L9911.44 2769.19L9962.49 2766.82L9962.2 2760.51L9961.9 2754.2L9910.86 2756.56L9911.15 2762.88ZM9962.2 2760.51L9957.94 2765.18L9976.23 2781.85L9980.49 2777.18L9984.75 2772.51L9966.45 2755.84L9962.2 2760.51ZM9980.49 2777.18L9974.18 2777.47L9982.05 2947.39L9988.37 2947.1L9994.68 2946.8L9986.8 2776.89L9980.49 2777.18ZM9988.37 2947.1L9983.69 2942.84L9967.02 2961.13L9971.69 2965.39L9976.37 2969.65L9993.04 2951.35L9988.37 2947.1ZM9971.69 2965.39L9971.4 2959.08L9920.36 2961.44L9920.65 2967.76L9920.94 2974.07L9971.99 2971.7L9971.69 2965.39ZM9920.65 2967.76L9924.91 2963.08L9906.62 2946.41L9902.36 2951.08L9898.1 2955.76L9916.39 2972.43L9920.65 2967.76ZM9902.36 2951.08L9908.67 2950.79L9900.79 2780.87L9894.48 2781.17L9888.17 2781.46L9896.04 2951.38L9902.36 2951.08ZM9894.48 2781.17L9899.15 2785.42L9915.82 2767.13L9911.15 2762.88L9906.48 2758.62L9889.81 2776.91L9894.48 2781.17ZM9795.87 2483.01L9796.16 2489.33L9847.21 2486.96L9846.91 2480.65L9846.62 2474.33L9795.57 2476.7L9795.87 2483.01ZM9846.91 2480.65L9842.66 2485.32L9860.95 2501.99L9865.2 2497.32L9869.46 2492.65L9851.17 2475.98L9846.91 2480.65ZM9865.2 2497.32L9858.89 2497.61L9866.77 2667.53L9873.08 2667.24L9879.39 2666.94L9871.52 2497.03L9865.2 2497.32ZM9873.08 2667.24L9868.41 2662.98L9851.74 2681.27L9856.41 2685.53L9861.08 2689.78L9877.75 2671.49L9873.08 2667.24ZM9856.41 2685.53L9856.12 2679.21L9805.07 2681.58L9805.37 2687.89L9805.66 2694.21L9856.7 2691.84L9856.41 2685.53ZM9805.37 2687.89L9809.62 2683.22L9791.33 2666.55L9787.07 2671.22L9782.82 2675.89L9801.11 2692.57L9805.37 2687.89ZM9787.07 2671.22L9793.39 2670.93L9785.51 2501.01L9779.2 2501.31L9772.88 2501.6L9780.76 2671.52L9787.07 2671.22ZM9779.2 2501.31L9783.87 2505.56L9800.54 2487.27L9795.87 2483.01L9791.2 2478.76L9774.53 2497.05L9779.2 2501.31ZM9947.44 2925.87L9953.75 2925.58L9948.01 2801.81L9941.7 2802.1L9935.39 2802.4L9941.13 2926.16L9947.44 2925.87ZM9941.7 2802.1L9941.41 2795.79L9934.42 2796.11L9934.71 2802.43L9935 2808.74L9941.99 2808.42L9941.7 2802.1ZM9934.71 2802.43L9928.4 2802.72L9934.13 2926.49L9940.45 2926.19L9946.76 2925.9L9941.02 2802.13L9934.71 2802.43ZM9940.45 2926.19L9940.74 2932.51L9947.73 2932.18L9947.44 2925.87L9947.15 2919.56L9940.15 2919.88L9940.45 2926.19ZM9825.86 2646.3L9826.15 2652.61L9833.15 2652.29L9832.85 2645.98L9832.56 2639.66L9825.57 2639.99L9825.86 2646.3ZM9832.85 2645.98L9839.17 2645.68L9833.43 2521.92L9827.12 2522.21L9820.8 2522.5L9826.54 2646.27L9832.85 2645.98ZM9827.12 2522.21L9826.82 2515.9L9819.83 2516.22L9820.12 2522.53L9820.42 2528.85L9827.41 2528.52L9827.12 2522.21ZM9820.12 2522.53L9813.81 2522.83L9819.55 2646.59L9825.86 2646.3L9832.17 2646.01L9826.44 2522.24L9820.12 2522.53Z" fill="#FBA21E" mask="url(#path-1-outside-1_212_500)"/>
<mask id="path-3-outside-2_212_500" maskUnits="userSpaceOnUse" x="10017.7" y="2456.66" width="387.415" height="424.722" fill="black">
<rect fill="white" x="10017.7" y="2456.66" width="387.415" height="424.722"/>
<path d="M10227.7 2856.79L10188.8 2719.59L10061.1 2783.56L10056.5 2777.27L10156 2674.69L10037.2 2596.36L10040.3 2589.25L10178.6 2623.87L10187.6 2481.57L10195.3 2480.75L10234.1 2617.95L10362 2554.93L10366.5 2561.22L10267 2662.85L10385.8 2742.14L10382.7 2749.24L10244.3 2713.67L10235.3 2855.97L10227.7 2856.79Z"/>
</mask>
<path d="M10227.7 2856.79L10221.8 2858.45L10223.2 2863.38L10228.3 2862.84L10227.7 2856.79ZM10188.8 2719.59L10194.7 2717.93L10192.7 2710.86L10186.1 2714.15L10188.8 2719.59ZM10061.1 2783.56L10056.1 2787.12L10059.2 2791.32L10063.8 2789L10061.1 2783.56ZM10056.5 2777.27L10052.2 2773.04L10048.6 2776.7L10051.6 2780.83L10056.5 2777.27ZM10156 2674.69L10160.3 2678.93L10165.4 2673.66L10159.3 2669.62L10156 2674.69ZM10037.2 2596.36L10031.7 2593.92L10029.6 2598.62L10033.9 2601.44L10037.2 2596.36ZM10040.3 2589.25L10041.8 2583.35L10036.8 2582.1L10034.8 2586.81L10040.3 2589.25ZM10178.6 2623.87L10177.1 2629.77L10184.2 2631.55L10184.7 2624.26L10178.6 2623.87ZM10187.6 2481.57L10187 2475.52L10181.9 2476.06L10181.6 2481.18L10187.6 2481.57ZM10195.3 2480.75L10201.1 2479.09L10199.7 2474.16L10194.6 2474.7L10195.3 2480.75ZM10234.1 2617.95L10228.3 2619.6L10230.3 2626.63L10236.8 2623.4L10234.1 2617.95ZM10362 2554.93L10366.9 2551.37L10363.9 2547.2L10359.3 2549.48L10362 2554.93ZM10366.5 2561.22L10370.9 2565.48L10374.4 2561.82L10371.4 2557.66L10366.5 2561.22ZM10267 2662.85L10262.6 2658.59L10257.5 2663.83L10263.6 2667.91L10267 2662.85ZM10385.8 2742.14L10391.4 2744.58L10393.4 2739.91L10389.2 2737.08L10385.8 2742.14ZM10382.7 2749.24L10381.2 2755.14L10386.2 2756.43L10388.3 2751.69L10382.7 2749.24ZM10244.3 2713.67L10245.9 2707.78L10238.7 2705.94L10238.3 2713.28L10244.3 2713.67ZM10235.3 2855.97L10236 2862.02L10241.1 2861.48L10241.4 2856.36L10235.3 2855.97ZM10227.7 2856.79L10233.5 2855.13L10194.7 2717.93L10188.8 2719.59L10183 2721.25L10221.8 2858.45L10227.7 2856.79ZM10188.8 2719.59L10186.1 2714.15L10058.4 2778.12L10061.1 2783.56L10063.8 2789L10191.5 2725.03L10188.8 2719.59ZM10061.1 2783.56L10066 2780L10061.5 2773.71L10056.5 2777.27L10051.6 2780.83L10056.1 2787.12L10061.1 2783.56ZM10056.5 2777.27L10060.9 2781.51L10160.3 2678.93L10156 2674.69L10151.6 2670.46L10052.2 2773.04L10056.5 2777.27ZM10156 2674.69L10159.3 2669.62L10040.6 2591.28L10037.2 2596.36L10033.9 2601.44L10152.6 2679.77L10156 2674.69ZM10037.2 2596.36L10042.8 2598.8L10045.9 2591.69L10040.3 2589.25L10034.8 2586.81L10031.7 2593.92L10037.2 2596.36ZM10040.3 2589.25L10038.9 2595.15L10177.1 2629.77L10178.6 2623.87L10180.1 2617.97L10041.8 2583.35L10040.3 2589.25ZM10178.6 2623.87L10184.7 2624.26L10193.7 2481.95L10187.6 2481.57L10181.6 2481.18L10172.5 2623.49L10178.6 2623.87ZM10187.6 2481.57L10188.3 2487.62L10195.9 2486.8L10195.3 2480.75L10194.6 2474.7L10187 2475.52L10187.6 2481.57ZM10195.3 2480.75L10189.4 2482.41L10228.3 2619.6L10234.1 2617.95L10240 2616.29L10201.1 2479.09L10195.3 2480.75ZM10234.1 2617.95L10236.8 2623.4L10364.7 2560.39L10362 2554.93L10359.3 2549.48L10231.4 2612.49L10234.1 2617.95ZM10362 2554.93L10357 2558.49L10361.6 2564.79L10366.5 2561.22L10371.4 2557.66L10366.9 2551.37L10362 2554.93ZM10366.5 2561.22L10362.2 2556.97L10262.6 2658.59L10267 2662.85L10271.3 2667.1L10370.9 2565.48L10366.5 2561.22ZM10267 2662.85L10263.6 2667.91L10382.4 2747.2L10385.8 2742.14L10389.2 2737.08L10270.4 2657.78L10267 2662.85ZM10385.8 2742.14L10380.2 2739.69L10377.1 2746.8L10382.7 2749.24L10388.3 2751.69L10391.4 2744.58L10385.8 2742.14ZM10382.7 2749.24L10384.2 2743.35L10245.9 2707.78L10244.3 2713.67L10242.8 2719.56L10381.2 2755.14L10382.7 2749.24ZM10244.3 2713.67L10238.3 2713.28L10229.2 2855.59L10235.3 2855.97L10241.4 2856.36L10250.4 2714.05L10244.3 2713.67ZM10235.3 2855.97L10234.7 2849.92L10227 2850.74L10227.7 2856.79L10228.3 2862.84L10236 2862.02L10235.3 2855.97Z" fill="#FBA21E" mask="url(#path-3-outside-2_212_500)"/>
<path d="M10516 2514.44L10519 2515.48L10518 2518.47L10515 2517.42L10516 2514.44ZM10529.2 2476.68L10530.3 2473.69L10533.2 2474.74L10532.2 2477.72L10529.2 2476.68ZM10497.1 2465.46L10494.1 2464.42L10495.2 2461.43L10498.2 2462.48L10497.1 2465.46ZM10483.9 2503.22L10482.9 2506.2L10479.9 2505.16L10480.9 2502.18L10483.9 2503.22ZM10404.7 2729.78L10403.7 2732.76L10400.7 2731.71L10401.8 2728.7L10404.7 2729.78ZM10436.8 2741L10439.8 2742L10438.8 2745.04L10435.8 2743.98L10436.8 2741ZM10500.5 2551.41L10501.6 2548.42L10504.5 2549.45L10503.5 2552.41L10500.5 2551.41ZM10473 2541.77L10470 2540.69L10471.1 2537.76L10474 2538.79L10473 2541.77ZM10516 2514.44L10513 2513.4L10526.2 2475.64L10529.2 2476.68L10532.2 2477.72L10519 2515.48L10516 2514.44ZM10529.2 2476.68L10528.2 2479.66L10496.1 2468.44L10497.1 2465.46L10498.2 2462.48L10530.3 2473.69L10529.2 2476.68ZM10497.1 2465.46L10500.1 2466.5L10486.9 2504.26L10483.9 2503.22L10480.9 2502.18L10494.1 2464.42L10497.1 2465.46ZM10483.9 2503.22L10485 2500.24L10517.1 2511.45L10516 2514.44L10515 2517.42L10482.9 2506.2L10483.9 2503.22ZM10404.7 2729.78L10405.8 2726.79L10437.9 2738.01L10436.8 2741L10435.8 2743.98L10403.7 2732.76L10404.7 2729.78ZM10436.8 2741L10433.8 2739.99L10497.6 2550.4L10500.5 2551.41L10503.5 2552.41L10439.8 2742L10436.8 2741ZM10500.5 2551.41L10499.5 2554.39L10471.9 2544.76L10473 2541.77L10474 2538.79L10501.6 2548.42L10500.5 2551.41ZM10473 2541.77L10476 2542.85L10407.7 2730.86L10404.7 2729.78L10401.8 2728.7L10470 2540.69L10473 2541.77ZM10582 2537.51L10585 2538.55L10584 2541.54L10581 2540.49L10582 2537.51ZM10595.2 2499.75L10596.3 2496.77L10599.2 2497.81L10598.2 2500.79L10595.2 2499.75ZM10563.1 2488.53L10560.1 2487.49L10561.2 2484.5L10564.2 2485.55L10563.1 2488.53ZM10549.9 2526.29L10548.9 2529.28L10545.9 2528.23L10546.9 2525.25L10549.9 2526.29ZM10470.7 2752.85L10469.7 2755.83L10466.7 2754.78L10467.8 2751.77L10470.7 2752.85ZM10502.8 2764.07L10505.8 2765.08L10504.8 2768.11L10501.8 2767.05L10502.8 2764.07ZM10566.6 2574.48L10567.6 2571.49L10570.5 2572.52L10569.5 2575.48L10566.6 2574.48ZM10539 2564.84L10536 2563.76L10537.1 2560.83L10540 2561.86L10539 2564.84ZM10582 2537.51L10579 2536.47L10592.2 2498.71L10595.2 2499.75L10598.2 2500.79L10585 2538.55L10582 2537.51ZM10595.2 2499.75L10594.2 2502.73L10562.1 2491.52L10563.1 2488.53L10564.2 2485.55L10596.3 2496.77L10595.2 2499.75ZM10563.1 2488.53L10566.1 2489.57L10552.9 2527.33L10549.9 2526.29L10546.9 2525.25L10560.1 2487.49L10563.1 2488.53ZM10549.9 2526.29L10551 2523.31L10583.1 2534.53L10582 2537.51L10581 2540.49L10548.9 2529.28L10549.9 2526.29ZM10470.7 2752.85L10471.8 2749.87L10503.9 2761.08L10502.8 2764.07L10501.8 2767.05L10469.7 2755.83L10470.7 2752.85ZM10502.8 2764.07L10499.8 2763.06L10563.6 2573.47L10566.6 2574.48L10569.5 2575.48L10505.8 2765.08L10502.8 2764.07ZM10566.6 2574.48L10565.5 2577.46L10537.9 2567.83L10539 2564.84L10540 2561.86L10567.6 2571.49L10566.6 2574.48ZM10539 2564.84L10542 2565.92L10473.7 2753.93L10470.7 2752.85L10467.8 2751.77L10536 2563.76L10539 2564.84Z" fill="#FBA21E"/>
<mask id="path-6-outside-3_212_500" maskUnits="userSpaceOnUse" x="10631.9" y="2375.05" width="221.615" height="321.089" fill="black">
<rect fill="white" x="10631.9" y="2375.05" width="221.615" height="321.089"/>
<path d="M10701.1 2592.5L10694.1 2558.95L10710.3 2553.27L10706.6 2535.49L10690 2541.3L10682.9 2507.75L10699.6 2501.94L10680.2 2409.11L10712.3 2397.9L10731.6 2490.72L10735.8 2489.27L10716.1 2396.58L10748.2 2385.36L10767.9 2478.05L10783 2472.77L10790.1 2506.32L10775 2511.6L10778.6 2529.38L10794.1 2523.97L10801.2 2557.52L10785.7 2562.93L10805.9 2661.82L10773.8 2673.04L10753.2 2574.28L10749.5 2575.6L10770 2674.36L10737.9 2685.58L10717.4 2586.82L10701.1 2592.5ZM10742.4 2542.05L10746.2 2540.73L10742.5 2522.95L10738.7 2524.27L10742.4 2542.05Z"/>
</mask>
<path d="M10701.1 2592.5L10694.9 2593.8L10696.4 2600.84L10703.2 2598.46L10701.1 2592.5ZM10694.1 2558.95L10692 2552.98L10686.7 2554.81L10687.9 2560.25L10694.1 2558.95ZM10710.3 2553.27L10712.4 2559.24L10717.6 2557.42L10716.5 2551.99L10710.3 2553.27ZM10706.6 2535.49L10712.8 2534.21L10711.3 2527.14L10704.5 2529.52L10706.6 2535.49ZM10690 2541.3L10683.8 2542.6L10685.3 2549.64L10692.1 2547.26L10690 2541.3ZM10682.9 2507.75L10680.9 2501.78L10675.6 2503.61L10676.8 2509.05L10682.9 2507.75ZM10699.6 2501.94L10701.6 2507.91L10706.9 2506.08L10705.7 2500.65L10699.6 2501.94ZM10680.2 2409.11L10678.2 2403.15L10672.9 2404.98L10674.1 2410.4L10680.2 2409.11ZM10712.3 2397.9L10718.5 2396.61L10717.1 2389.55L10710.3 2391.93L10712.3 2397.9ZM10731.6 2490.72L10725.5 2492.01L10726.9 2499.07L10733.7 2496.69L10731.6 2490.72ZM10735.8 2489.27L10737.9 2495.24L10743.1 2493.4L10742 2487.96L10735.8 2489.27ZM10716.1 2396.58L10714 2390.61L10708.8 2392.44L10709.9 2397.89L10716.1 2396.58ZM10748.2 2385.36L10754.4 2384.04L10752.9 2377.02L10746.1 2379.39L10748.2 2385.36ZM10767.9 2478.05L10761.7 2479.37L10763.2 2486.39L10770 2484.02L10767.9 2478.05ZM10783 2472.77L10789.2 2471.47L10787.7 2464.43L10780.9 2466.8L10783 2472.77ZM10790.1 2506.32L10792.2 2512.29L10797.4 2510.46L10796.3 2505.02L10790.1 2506.32ZM10775 2511.6L10772.9 2505.63L10767.6 2507.46L10768.8 2512.88L10775 2511.6ZM10778.6 2529.38L10772.4 2530.66L10773.9 2537.74L10780.7 2535.35L10778.6 2529.38ZM10794.1 2523.97L10800.3 2522.67L10798.8 2515.63L10792 2518L10794.1 2523.97ZM10801.2 2557.52L10803.3 2563.49L10808.5 2561.66L10807.4 2556.22L10801.2 2557.52ZM10785.7 2562.93L10783.6 2556.96L10778.4 2558.79L10779.5 2564.19L10785.7 2562.93ZM10805.9 2661.82L10807.9 2667.79L10813.2 2665.97L10812.1 2660.56L10805.9 2661.82ZM10773.8 2673.04L10767.6 2674.32L10769 2681.39L10775.8 2679.01L10773.8 2673.04ZM10753.2 2574.28L10759.4 2573L10757.9 2565.93L10751.1 2568.31L10753.2 2574.28ZM10749.5 2575.6L10747.4 2569.63L10742.1 2571.46L10743.3 2576.89L10749.5 2575.6ZM10770 2674.36L10772.1 2680.33L10777.3 2678.5L10776.2 2673.07L10770 2674.36ZM10737.9 2685.58L10731.7 2686.86L10733.2 2693.92L10740 2691.54L10737.9 2685.58ZM10717.4 2586.82L10723.5 2585.53L10722.1 2578.47L10715.3 2580.85L10717.4 2586.82ZM10742.4 2542.05L10736.2 2543.33L10737.7 2550.41L10744.5 2548.02L10742.4 2542.05ZM10746.2 2540.73L10748.2 2546.7L10753.5 2544.88L10752.4 2539.46L10746.2 2540.73ZM10742.5 2522.95L10748.7 2521.67L10747.2 2514.6L10740.4 2516.98L10742.5 2522.95ZM10738.7 2524.27L10736.6 2518.3L10731.4 2520.13L10732.5 2525.55L10738.7 2524.27ZM10701.1 2592.5L10707.3 2591.19L10700.2 2557.65L10694.1 2558.95L10687.9 2560.25L10694.9 2593.8L10701.1 2592.5ZM10694.1 2558.95L10696.1 2564.92L10712.4 2559.24L10710.3 2553.27L10708.2 2547.3L10692 2552.98L10694.1 2558.95ZM10710.3 2553.27L10716.5 2551.99L10712.8 2534.21L10706.6 2535.49L10700.4 2536.77L10704.1 2554.55L10710.3 2553.27ZM10706.6 2535.49L10704.5 2529.52L10687.9 2535.33L10690 2541.3L10692.1 2547.26L10708.7 2541.46L10706.6 2535.49ZM10690 2541.3L10696.2 2539.99L10689.1 2506.45L10682.9 2507.75L10676.8 2509.05L10683.8 2542.6L10690 2541.3ZM10682.9 2507.75L10685 2513.72L10701.6 2507.91L10699.6 2501.94L10697.5 2495.97L10680.9 2501.78L10682.9 2507.75ZM10699.6 2501.94L10705.7 2500.65L10686.4 2407.83L10680.2 2409.11L10674.1 2410.4L10693.4 2503.23L10699.6 2501.94ZM10680.2 2409.11L10682.3 2415.08L10714.4 2403.86L10712.3 2397.9L10710.3 2391.93L10678.2 2403.15L10680.2 2409.11ZM10712.3 2397.9L10706.1 2399.18L10725.5 2492.01L10731.6 2490.72L10737.8 2489.44L10718.5 2396.61L10712.3 2397.9ZM10731.6 2490.72L10733.7 2496.69L10737.9 2495.24L10735.8 2489.27L10733.7 2483.3L10729.6 2484.75L10731.6 2490.72ZM10735.8 2489.27L10742 2487.96L10722.3 2395.26L10716.1 2396.58L10709.9 2397.89L10729.6 2490.58L10735.8 2489.27ZM10716.1 2396.58L10718.2 2402.54L10750.3 2391.33L10748.2 2385.36L10746.1 2379.39L10714 2390.61L10716.1 2396.58ZM10748.2 2385.36L10742 2386.67L10761.7 2479.37L10767.9 2478.05L10774.1 2476.74L10754.4 2384.04L10748.2 2385.36ZM10767.9 2478.05L10770 2484.02L10785.1 2478.74L10783 2472.77L10780.9 2466.8L10765.8 2472.08L10767.9 2478.05ZM10783 2472.77L10776.8 2474.08L10783.9 2507.62L10790.1 2506.32L10796.3 2505.02L10789.2 2471.47L10783 2472.77ZM10790.1 2506.32L10788 2500.35L10772.9 2505.63L10775 2511.6L10777 2517.57L10792.2 2512.29L10790.1 2506.32ZM10775 2511.6L10768.8 2512.88L10772.4 2530.66L10778.6 2529.38L10784.8 2528.11L10781.2 2510.32L10775 2511.6ZM10778.6 2529.38L10780.7 2535.35L10796.2 2529.94L10794.1 2523.97L10792 2518L10776.5 2523.42L10778.6 2529.38ZM10794.1 2523.97L10787.9 2525.28L10795 2558.82L10801.2 2557.52L10807.4 2556.22L10800.3 2522.67L10794.1 2523.97ZM10801.2 2557.52L10799.1 2551.55L10783.6 2556.96L10785.7 2562.93L10787.8 2568.9L10803.3 2563.49L10801.2 2557.52ZM10785.7 2562.93L10779.5 2564.19L10799.7 2663.08L10805.9 2661.82L10812.1 2660.56L10791.9 2561.67L10785.7 2562.93ZM10805.9 2661.82L10803.8 2655.85L10771.7 2667.07L10773.8 2673.04L10775.8 2679.01L10807.9 2667.79L10805.9 2661.82ZM10773.8 2673.04L10780 2671.75L10759.4 2573L10753.2 2574.28L10747 2575.57L10767.6 2674.32L10773.8 2673.04ZM10753.2 2574.28L10751.1 2568.31L10747.4 2569.63L10749.5 2575.6L10751.5 2581.57L10755.3 2580.25L10753.2 2574.28ZM10749.5 2575.6L10743.3 2576.89L10763.8 2675.64L10770 2674.36L10776.2 2673.07L10755.6 2574.32L10749.5 2575.6ZM10770 2674.36L10767.9 2668.39L10735.8 2679.61L10737.9 2685.58L10740 2691.54L10772.1 2680.33L10770 2674.36ZM10737.9 2685.58L10744.1 2684.29L10723.5 2585.53L10717.4 2586.82L10711.2 2588.11L10731.7 2686.86L10737.9 2685.58ZM10717.4 2586.82L10715.3 2580.85L10699 2586.53L10701.1 2592.5L10703.2 2598.46L10719.4 2592.79L10717.4 2586.82ZM10742.4 2542.05L10744.5 2548.02L10748.2 2546.7L10746.2 2540.73L10744.1 2534.77L10740.3 2536.09L10742.4 2542.05ZM10746.2 2540.73L10752.4 2539.46L10748.7 2521.67L10742.5 2522.95L10736.3 2524.23L10740 2542.01L10746.2 2540.73ZM10742.5 2522.95L10740.4 2516.98L10736.6 2518.3L10738.7 2524.27L10740.8 2530.24L10744.6 2528.92L10742.5 2522.95ZM10738.7 2524.27L10732.5 2525.55L10736.2 2543.33L10742.4 2542.05L10748.6 2540.78L10744.9 2522.99L10738.7 2524.27Z" fill="#FBA21E" mask="url(#path-6-outside-3_212_500)"/>
<path d="M10818.3 2611.08L10816.1 2608.7L10808.6 2615.55L10818.7 2614.27L10818.3 2611.08ZM10983.2 2461.06L10985.3 2463.44L10987.1 2461.78L10986 2459.58L10983.2 2461.06ZM10888.8 2278.92L10890.3 2276.1L10881 2270.94L10885.9 2280.4L10888.8 2278.92ZM11070.8 2379.86L11069.2 2382.67L11071.2 2383.79L11072.9 2382.23L11070.8 2379.86ZM11247.6 2218.33L11250.8 2218.91L11252.5 2209.5L11245.4 2215.95L11247.6 2218.33ZM11204.2 2453.86L11201 2453.28L11200.6 2455.55L11202.6 2456.67L11204.2 2453.86ZM11386.2 2554.8L11386.4 2558L11397 2557.15L11387.7 2551.99L11386.2 2554.8ZM11181.7 2571.18L11181.4 2567.97L11179 2568.17L11178.5 2570.59L11181.7 2571.18ZM11140.6 2789.87L11137.7 2791.21L11141.9 2800.43L11143.8 2790.46L11140.6 2789.87ZM11045.7 2582.3L11048.6 2580.96L11047.7 2578.81L11045.3 2579.11L11045.7 2582.3ZM10921.7 2563.06L10919.6 2560.63L10911.4 2567.77L10922.1 2566.24L10921.7 2563.06ZM11067.9 2542.27L11070.9 2540.97L11069.9 2538.74L11067.5 2539.09L11067.9 2542.27ZM11127.7 2677.32L11124.8 2678.62L11129.2 2688.55L11130.9 2677.83L11127.7 2677.32ZM11150.1 2537.59L11149.8 2534.38L11147.3 2534.56L11146.9 2537.08L11150.1 2537.59ZM11277.7 2528.85L11278 2532.06L11288.8 2531.31L11279.3 2526.04L11277.7 2528.85ZM11165.1 2466.39L11162 2465.79L11161.5 2468.07L11163.6 2469.2L11165.1 2466.39ZM11194.3 2314.39L11197.5 2315L11199.3 2305.42L11192.1 2312.02L11194.3 2314.39ZM11080.3 2419.33L11078.7 2422.14L11080.7 2423.26L11082.5 2421.69L11080.3 2419.33ZM10967.1 2356.57L10968.7 2353.76L10959.1 2348.43L10964.3 2358.1L10967.1 2356.57ZM11028.4 2470.1L11030.5 2472.53L11032.4 2470.84L11031.2 2468.57L11028.4 2470.1ZM10818.3 2611.08L10820.5 2613.46L10985.3 2463.44L10983.2 2461.06L10981 2458.68L10816.1 2608.7L10818.3 2611.08ZM10983.2 2461.06L10986 2459.58L10891.6 2277.44L10888.8 2278.92L10885.9 2280.4L10980.3 2462.54L10983.2 2461.06ZM10888.8 2278.92L10887.2 2281.73L11069.2 2382.67L11070.8 2379.86L11072.3 2377.04L10890.3 2276.1L10888.8 2278.92ZM11070.8 2379.86L11072.9 2382.23L11249.8 2220.7L11247.6 2218.33L11245.4 2215.95L11068.6 2377.48L11070.8 2379.86ZM11247.6 2218.33L11244.4 2217.75L11201 2453.28L11204.2 2453.86L11207.3 2454.44L11250.8 2218.91L11247.6 2218.33ZM11204.2 2453.86L11202.6 2456.67L11384.6 2557.61L11386.2 2554.8L11387.7 2551.99L11205.7 2451.05L11204.2 2453.86ZM11386.2 2554.8L11385.9 2551.59L11181.4 2567.97L11181.7 2571.18L11181.9 2574.38L11386.4 2558L11386.2 2554.8ZM11181.7 2571.18L11178.5 2570.59L11137.5 2789.28L11140.6 2789.87L11143.8 2790.46L11184.8 2571.77L11181.7 2571.18ZM11140.6 2789.87L11143.6 2788.53L11048.6 2580.96L11045.7 2582.3L11042.8 2583.63L11137.7 2791.21L11140.6 2789.87ZM11045.7 2582.3L11045.3 2579.11L10817.9 2607.89L10818.3 2611.08L10818.7 2614.27L11046.1 2585.49L11045.7 2582.3ZM10921.7 2563.06L10922.1 2566.24L11068.4 2545.45L11067.9 2542.27L11067.5 2539.09L10921.2 2559.87L10921.7 2563.06ZM11067.9 2542.27L11065 2543.57L11124.8 2678.62L11127.7 2677.32L11130.6 2676.02L11070.9 2540.97L11067.9 2542.27ZM11127.7 2677.32L11130.9 2677.83L11153.2 2538.1L11150.1 2537.59L11146.9 2537.08L11124.5 2676.81L11127.7 2677.32ZM11150.1 2537.59L11150.3 2540.8L11278 2532.06L11277.7 2528.85L11277.5 2525.64L11149.8 2534.38L11150.1 2537.59ZM11277.7 2528.85L11279.3 2526.04L11166.7 2463.58L11165.1 2466.39L11163.6 2469.2L11276.2 2531.66L11277.7 2528.85ZM11165.1 2466.39L11168.3 2467L11197.5 2315L11194.3 2314.39L11191.2 2313.78L11162 2465.79L11165.1 2466.39ZM11194.3 2314.39L11192.1 2312.02L11078.1 2416.96L11080.3 2419.33L11082.5 2421.69L11196.5 2316.76L11194.3 2314.39ZM11080.3 2419.33L11081.8 2416.51L10968.7 2353.76L10967.1 2356.57L10965.6 2359.38L11078.7 2422.14L11080.3 2419.33ZM10967.1 2356.57L10964.3 2358.1L11025.6 2471.63L11028.4 2470.1L11031.2 2468.57L10970 2355.05L10967.1 2356.57ZM11028.4 2470.1L11026.3 2467.68L10919.6 2560.63L10921.7 2563.06L10923.8 2565.48L11030.5 2472.53L11028.4 2470.1Z" fill="#FBA21E"/>
<rect width="11915.3" height="4091.86" transform="matrix(-0.962463 0.271412 0.271412 0.962463 11106.1 2474)" fill="#14B6C7"/>
</g>
<defs>
<clipPath id="clip0_212_500">
<rect width="11992" height="5629" fill="white"/>
</clipPath>
</defs>
</svg>
